<?xml version="1.0" encoding="iso-8859-1"?>
<!-- Generator: Adobe Illustrator 22.0.1, SVG Export Plug-In . SVG Version: 6.00 Build 0)  -->
<svg version="1.1" id="Vrstva_1" xmlns="http://www.w3.org/2000/svg" xmlns:xlink="http://www.w3.org/1999/xlink" x="0px" y="0px"
	 width="44.987px" height="40.006px" viewBox="0 0 44.987 40.006" style="enable-background:new 0 0 44.987 40.006;"
	 xml:space="preserve">
<g id="Tvar_6_xA0_Obraz_1_">
</g>
<g id="Tvar_9_xA0_Obraz_1_">
</g>
<g id="Tvar_8_xA0_Obraz_1_">
</g>
<g id="Tvar_8_kopie_1_" style="enable-background:new    ;">
	<g id="Tvar_8_kopie">
		<g>
			
				<linearGradient id="SVGID_1_" gradientUnits="userSpaceOnUse" x1="0" y1="21.1781" x2="44.986" y2="21.1781" gradientTransform="matrix(1 0 0 -1 0 41.1811)">
				<stop  offset="0" style="stop-color:#F0C837"/>
				<stop  offset="0.1338" style="stop-color:#C09632"/>
				<stop  offset="0.6674" style="stop-color:#F6E05B"/>
				<stop  offset="0.7585" style="stop-color:#EEE07F"/>
				<stop  offset="1" style="stop-color:#B8A629"/>
			</linearGradient>
			<path style="fill:url(#SVGID_1_);" d="M17.181,28.99c0.176,0.151,0.392,0.226,0.606,0.227h0.003h0.005
				c0.267,0,0.533-0.115,0.719-0.335c0.149-0.176,0.223-0.392,0.225-0.607v-0.003v-0.009l0,0c0-0.268-0.114-0.536-0.333-0.723
				l-3.915-3.356l3.915-3.356c0.217-0.186,0.33-0.451,0.332-0.717l0,0v-0.004v-0.004v-0.005l0,0
				c-0.001-0.216-0.075-0.435-0.225-0.612c-0.186-0.22-0.452-0.334-0.719-0.335l0,0h-0.003c-0.216,0-0.435,0.075-0.613,0.228
				l-4.761,4.081c-0.209,0.18-0.331,0.443-0.332,0.72v0.005c0,0.28,0.121,0.544,0.333,0.725L17.181,28.99z M26.482,28.893
				c0.184,0.212,0.444,0.323,0.704,0.325l0,0h0.004h0.006c0.216,0,0.433-0.076,0.61-0.227l4.761-4.081
				c0.211-0.181,0.333-0.446,0.333-0.725c0-0.279-0.121-0.544-0.333-0.725l-4.761-4.081c-0.176-0.152-0.394-0.227-0.61-0.227l0,0
				h-0.002l0,0h-0.001l0,0h-0.002l0,0c-0.266,0.001-0.532,0.115-0.718,0.335c-0.15,0.177-0.224,0.395-0.226,0.611l0,0v0.004v0.001
				v0.001c0,0.001,0,0.002,0,0.003v0.006l0,0c0.002,0.266,0.115,0.531,0.332,0.717l3.915,3.356l-3.915,3.356
				c-0.218,0.187-0.331,0.454-0.332,0.721l0,0v0.003v0.002c0,0.101,0.017,0.203,0.049,0.3l-0.276-0.139L26.482,28.893z
				 M20.612,32.259L20.612,32.259c0.066,0.014,0.131,0.02,0.196,0.02c0.439,0,0.83-0.308,0.925-0.756L24.7,17.34
				c0.014-0.066,0.021-0.132,0.021-0.197c0-0.442-0.306-0.836-0.751-0.931c-0.065-0.014-0.131-0.021-0.196-0.021
				c-0.439,0-0.831,0.308-0.925,0.756L19.881,31.13c-0.014,0.066-0.02,0.132-0.02,0.197C19.861,31.769,20.167,32.163,20.612,32.259z
				 M39.837,0v0.106V0H5.15C2.31,0,0,2.325,0,5.185v29.636c0,2.86,2.31,5.184,5.15,5.185h34.686c2.84,0,5.15-2.325,5.15-5.185V5.185
				C44.987,2.325,42.677,0,39.837,0z M43.095,34.821c0,0.905-0.365,1.724-0.955,2.318c-0.591,0.594-1.404,0.962-2.303,0.962H5.15
				c-0.899,0-1.712-0.368-2.303-0.962c-0.59-0.595-0.955-1.414-0.956-2.318V12.284h41.203v22.537H43.095z M43.095,10.379H1.892
				V5.185c0-0.905,0.365-1.723,0.956-2.318c0.59-0.595,1.404-0.962,2.302-0.963h34.686c0.899,0,1.712,0.368,2.303,0.962
				c0.591,0.595,0.955,1.413,0.955,2.318L43.095,10.379L43.095,10.379z M12.782,3.628c-1.4,0-2.538,1.146-2.539,2.556
				c0,1.409,1.139,2.555,2.539,2.556c1.4-0.001,2.538-1.146,2.539-2.556C15.32,4.774,14.182,3.628,12.782,3.628z M13.239,6.644
				c-0.118,0.118-0.278,0.191-0.457,0.191s-0.339-0.073-0.457-0.191c-0.118-0.119-0.19-0.28-0.19-0.46s0.072-0.341,0.19-0.46
				s0.278-0.191,0.457-0.191s0.339,0.073,0.457,0.191c0.118,0.119,0.189,0.28,0.19,0.46C13.428,6.364,13.356,6.525,13.239,6.644z
				 M5.627,3.605c-1.4,0-2.538,1.146-2.539,2.556c0,1.41,1.138,2.555,2.539,2.556c1.4,0,2.538-1.146,2.539-2.556
				C8.166,4.751,7.028,3.605,5.627,3.605z M6.084,6.621c-0.118,0.118-0.278,0.19-0.457,0.191c-0.178,0-0.339-0.073-0.457-0.191
				c-0.118-0.119-0.19-0.28-0.19-0.46s0.072-0.341,0.19-0.46C5.289,5.583,5.449,5.51,5.628,5.51s0.339,0.073,0.457,0.191
				c0.118,0.119,0.19,0.28,0.19,0.46C6.274,6.341,6.202,6.502,6.084,6.621z M19.936,3.651c-1.4,0-2.538,1.146-2.538,2.555
				c0,1.41,1.138,2.555,2.538,2.556c1.4,0,2.538-1.146,2.538-2.556C22.474,4.797,21.336,3.651,19.936,3.651z M20.393,6.666
				c-0.118,0.118-0.278,0.191-0.457,0.191s-0.339-0.073-0.457-0.191c-0.117-0.119-0.189-0.28-0.19-0.46
				c0-0.18,0.072-0.341,0.19-0.46c0.118-0.118,0.278-0.191,0.457-0.191s0.339,0.073,0.457,0.191c0.118,0.119,0.189,0.28,0.19,0.46
				C20.582,6.386,20.51,6.547,20.393,6.666z"/>
		</g>
	</g>
</g>
</svg>
